<svg xmlns="http://www.w3.org/2000/svg" viewBox="0 0 505.44 505.44"><defs><style>.cls-1{fill:#fff;}.cls-2{fill:#b36734;}</style></defs><title>favicon_2</title><g id="Capa_2" data-name="Capa 2"><g id="Capa_1-2" data-name="Capa 1"><rect class="cls-1" width="505.44" height="505.44" rx="252.72"/><path class="cls-2" d="M306.1,90.12a435.44,435.44,0,0,1-72.81,2.62A324.9,324.9,0,0,1,197,89.41a114.48,114.48,0,0,1-17.84-4,36.56,36.56,0,0,1-4.29-1.72A13.47,13.47,0,0,1,170.92,81a4.12,4.12,0,0,1-1.15-2.37A4.33,4.33,0,0,1,170.4,76a9.39,9.39,0,0,1,3.69-3.14c5.63-2.83,11.79-3.54,17.68-4.82s11.95-2.22,18-3.12a309.06,309.06,0,0,1,36.33-3.08,289.66,289.66,0,0,1,36.43,1.34c6.05.64,12.08,1.39,18.08,2.45a106.21,106.21,0,0,1,17.68,4.71,66.24,66.24,0,0,1,8.41,3.73,38.17,38.17,0,0,1,7.55,5.33A28.43,28.43,0,0,1,340,86.68a33.07,33.07,0,0,1,3.32,8.65,44.91,44.91,0,0,1,1.2,9.14,80.33,80.33,0,0,1-.19,9.18,69,69,0,0,1-3.72,17.95l-12.72,34.11c-1,2.84-2.19,5.69-3.09,8.52A47.55,47.55,0,0,0,323,183a45.55,45.55,0,0,0,1.45,17.73c.42,1.43.9,2.84,1.45,4.23s1.2,2.77,1.79,4.16l3.67,8.32,7.42,16.62c4.92,11.09,9.76,22.24,14.06,33.61,1.11,2.83,2.1,5.71,3.14,8.56s2,5.75,2.88,8.66c1.86,5.79,3.46,11.67,4.86,17.6a153.44,153.44,0,0,1,4.3,36.24A117.32,117.32,0,0,1,366.33,357a110.48,110.48,0,0,1-4.71,17.7c-1.16,2.83-2.18,5.72-3.57,8.45-.67,1.37-1.26,2.78-2,4.12l-2.23,4c-.7,1.36-1.59,2.61-2.39,3.91s-1.59,2.58-2.52,3.86a68,68,0,0,1-6.12,6.86A123.29,123.29,0,0,1,329.12,418l-3.68,2.73c-1.23.91-2.53,1.7-3.8,2.56-2.5,1.75-5.2,3.2-7.81,4.77a132.2,132.2,0,0,1-16.62,7.67c-1.41.6-2.88,1-4.32,1.52s-2.89,1-4.37,1.39l-4.41,1.24-4.46,1a127.05,127.05,0,0,1-72.06-5.4l-4.26-1.68-4.17-1.9c-.69-.32-1.4-.62-2.08-1l-2-1.05c-1.35-.72-2.73-1.38-4-2.15-2.64-1.55-5.29-3.06-7.81-4.8s-5-3.51-7.46-5.32c-1.21-.92-2.36-1.93-3.55-2.89l-1.77-1.46c-.58-.49-1.13-1-1.69-1.54l-3.38-3.1-3.21-3.27c-1.07-1.08-2.14-2.17-3.14-3.33a41.68,41.68,0,0,1-2.93-3.62l-2.48-3.86-1.23-1.93c-.4-.66-.75-1.34-1.13-2l-2.23-4-2-4.14-1-2.07-.85-2.14c-.56-1.42-1.17-2.82-1.68-4.27a114.28,114.28,0,0,1-4.64-17.74A127,127,0,0,1,137.33,338a148.76,148.76,0,0,1,1.16-18.27,203.11,203.11,0,0,1,8.2-35.58q2.77-8.7,6.05-17.22c2.15-5.68,4.45-11.31,6.81-16.91,4.73-11.19,9.75-22.24,14.68-33.32l3.65-8.33c.6-1.39,1.23-2.78,1.75-4.15A42,42,0,0,0,181,200a45.57,45.57,0,0,0,1.18-17.67,46.17,46.17,0,0,0-1.95-8.68c-1-2.8-2.1-5.67-3.13-8.51l-6.37-17-6.37-17.07A65.21,65.21,0,0,1,160.79,113a1,1,0,0,1,.93-1,1,1,0,0,1,1,.91v0a62.59,62.59,0,0,0,3.68,17.44l6.56,17,6.58,17,1.65,4.25c.55,1.4,1.1,2.82,1.63,4.32a49,49,0,0,1,1.08,28c-.4,1.53-.89,3.05-1.44,4.54s-1.18,2.89-1.76,4.29L177.15,218c-4.83,11.15-9.75,22.23-14.35,33.41-2.29,5.59-4.53,11.2-6.6,16.85s-4,11.34-5.82,17.08a198.74,198.74,0,0,0-7.73,34.93,144.13,144.13,0,0,0-1,17.72,120.81,120.81,0,0,0,1.65,17.53,109.13,109.13,0,0,0,4.59,16.91c.49,1.37,1.1,2.7,1.64,4.06l.83,2,1,2,1.91,3.94,2.15,3.81c.36.64.7,1.29,1.09,1.91L157.7,392l2.37,3.65a39.6,39.6,0,0,0,2.6,3.16c1,1.08,2,2.13,3,3.17l3.11,3.12,3.25,3c.55.49,1.08,1,1.64,1.47l1.71,1.39c1.14.92,2.25,1.88,3.42,2.76,2.38,1.71,4.7,3.51,7.19,5.06s5,3.09,7.51,4.56c1.26.73,2.6,1.35,3.89,2l2,1c.65.33,1.33.61,2,.91l4,1.8,4.1,1.59a121.62,121.62,0,0,0,69,4.78l4.26-1,4.2-1.22c1.41-.37,2.78-.87,4.16-1.34s2.77-.9,4.11-1.48A127,127,0,0,0,311,423c2.48-1.52,5.05-2.91,7.42-4.59,1.2-.83,2.44-1.59,3.6-2.46l3.5-2.62a118.35,118.35,0,0,0,12.94-11.68,62.13,62.13,0,0,0,5.56-6.29l.26-.35.11-.17.15-.23.58-.92,1.15-1.83c.75-1.24,1.59-2.42,2.25-3.71l2.07-3.79c.7-1.26,1.24-2.6,1.87-3.89,1.3-2.57,2.23-5.29,3.32-8a106.18,106.18,0,0,0,4.32-16.66,112.37,112.37,0,0,0,1.45-17.21A147.2,147.2,0,0,0,357.21,304c-1.39-5.72-2.92-11.43-4.76-17.08-.87-2.83-1.88-5.64-2.83-8.46s-2-5.61-3.09-8.39c-4.25-11.17-9.06-22.21-14-33.25l-7.44-16.6-3.7-8.37-.92-2.1-.46-1.05-.49-1.18c-.65-1.61-1.2-3.23-1.69-4.89a52.45,52.45,0,0,1-1.7-20.39,54.41,54.41,0,0,1,2.09-10c.23-.82.54-1.62.81-2.42l.8-2.18,1.58-4.27,12.65-34.08a62.23,62.23,0,0,0,3.3-16.14,70.82,70.82,0,0,0,.16-8.37,39,39,0,0,0-1-7.77,26.63,26.63,0,0,0-2.64-6.86,21.49,21.49,0,0,0-4.41-5.51c-3.61-3.32-8.34-5.67-13.66-7.62a99.36,99.36,0,0,0-16.51-4.36c-2.82-.52-5.77-.9-8.7-1.32s-5.88-.72-8.83-1A282.74,282.74,0,0,0,246.24,69a303.46,303.46,0,0,0-35.48,3.07C204.88,73,199,74,193.2,75.17l-4.51.91c-1.48.28-2.85.57-4.2.88s-2.64.67-3.84,1.07a20.13,20.13,0,0,0-3.14,1.28,5,5,0,0,0-.89.56c-.17.13-.15.18,0-.12a3.07,3.07,0,0,0,.29-.7c0-.15.05-.31.08-.47a1.93,1.93,0,0,0,0-.24c0-.07,0-.28,0-.42a3.24,3.24,0,0,0-.71-1.87c-.06-.07.14.13.46.33a10.89,10.89,0,0,0,1.27.69,28.5,28.5,0,0,0,3.45,1.37,107.82,107.82,0,0,0,16.64,3.72,319.29,319.29,0,0,0,35.46,3.2l35.9,1.24c12,.44,24,.83,36.31,1.58H306a1,1,0,0,1,.06,1.93Z"/></g></g></svg>