<svg xmlns="http://www.w3.org/2000/svg" viewBox="0 0 1268.39 480.02"><defs><style>.cls-1{fill:#b36734;}.cls-2{fill:#211915;}</style></defs><title>logo_2</title><g id="Capa_2" data-name="Capa 2"><g id="Capa_1-2" data-name="Capa 1"><path class="cls-1" d="M1158.75,326.35c15.5,3.24,30.94,6.89,46.17,11.41,7.6,2.27,15.16,4.76,22.59,7.62a145.84,145.84,0,0,1,21.68,10.26,64.69,64.69,0,0,1,9.91,7.08,29.54,29.54,0,0,1,7.73,9.91,16.92,16.92,0,0,1,.49,13,28.43,28.43,0,0,1-7.29,10.43,63.38,63.38,0,0,1-9.76,7.48,114.33,114.33,0,0,1-10.57,5.92,208.76,208.76,0,0,1-22.14,9.32,469.28,469.28,0,0,1-45.79,13.6c-15.44,3.82-31,7.14-46.58,10.14-31.19,6-62.61,10.64-94.08,14.66s-63,7.28-94.63,10.07-63.24,4.94-94.91,6.73q-95,5.36-190.15,5.92c-126.83.78-253.79-3.47-380.16-16.47Q247.58,461,223.92,458c-15.76-2-31.51-4.2-47.21-6.72-31.41-5-62.73-11.09-93.58-19.68-7.71-2.16-15.39-4.47-23-7.1S45,419.07,37.55,415.73a128.32,128.32,0,0,1-21.61-12,54.42,54.42,0,0,1-9.66-8.66,30.48,30.48,0,0,1-3.9-5.74,20.68,20.68,0,0,1-2.24-7,19,19,0,0,1,.6-7.51,23.17,23.17,0,0,1,3.08-6.45,39.31,39.31,0,0,1,9.26-9.18,104.45,104.45,0,0,1,21.56-11.54c14.92-6,30.31-10.16,45.81-13.57l.27,1c-7.51,2.53-15,5.13-22.33,8s-14.59,5.93-21.57,9.41a98.73,98.73,0,0,0-19.47,12.16,34.36,34.36,0,0,0-7.08,7.91,12.3,12.3,0,0,0-1.86,8.59,16.74,16.74,0,0,0,4.59,8,45.46,45.46,0,0,0,8.36,6.71,121.76,121.76,0,0,0,20.35,10.12c14.33,5.71,29.4,10,44.56,13.86s30.56,7.08,46,10,31,5.54,46.55,8q46.72,7.19,93.86,12.14c62.8,6.65,125.89,10.93,189.05,13.72s126.39,4.17,189.63,4.12,126.49-1.36,189.66-4.31q47.37-2.19,94.67-5.74c31.53-2.35,63-5.2,94.42-8.75s62.71-7.85,93.82-13.22c15.55-2.71,31-5.74,46.41-9.26a465.38,465.38,0,0,0,45.46-12.64,212.9,212.9,0,0,0,21.78-8.69,111.67,111.67,0,0,0,10.26-5.46,59.76,59.76,0,0,0,9.21-6.75,24.46,24.46,0,0,0,6.44-8.7,13,13,0,0,0-.19-10.08,26.06,26.06,0,0,0-6.61-8.77,62.67,62.67,0,0,0-9.25-6.9,148.87,148.87,0,0,0-21-10.5c-7.27-3-14.7-5.67-22.21-8.12-15-4.87-30.33-8.9-45.73-12.53Z"/><path class="cls-2" d="M410,64c0,31.15,20.94,53.86,50.52,53.86,22.18,0,42.07-15,47.71-34.84H518c-6.34,25.87-29.58,44.35-57.57,44.35-35.74,0-60-27.45-60-63.37,0-36.62,25-63.38,60-63.38C488.46.66,511.7,19.15,518,45h-9.86C502.54,25,482.65,10.17,460.29,10.17,430.89,10.17,410,32.88,410,64Z"/><path class="cls-2" d="M615.39,96.43c-5.82,18.84-21.48,31-41.72,31-25.18,0-43.31-19.35-43.31-45.76,0-26.59,18.13-45.78,43.65-45.78s43.13,19.19,43.13,44.37a42.05,42.05,0,0,1-.35,4.57H540.21c1.24,20.43,14.79,34,33.46,34a32.88,32.88,0,0,0,31.68-22.36Zm-75.18-18h67.6c-.7-19.89-14.43-34.15-33.8-34.15C554.83,44.32,541.45,58.06,540.21,78.47Z"/><path class="cls-2" d="M681.22,47.14c-24,0-36.61,12.5-36.61,36.27v44h-9.34v-44c0-29.23,16.55-45.78,46-45.78Z"/><path class="cls-2" d="M770.63,106.46c-7.22,12.68-20.06,21-35,21-23.76,0-42.25-19.89-42.25-45.76,0-26.76,18.32-45.78,43.31-45.78,26.06,0,43.48,19.72,43.48,45.78v44h-9.51ZM702.86,81.65c0,20.41,14.44,36.25,33.8,36.25s34-15.84,34-36.25c0-19.2-12-36.27-34-36.27C715.36,45.38,702.86,62.45,702.86,81.65Z"/><path class="cls-2" d="M873.26,127.41h-9.49v-44c0-22-10.57-36.27-27.65-36.27-17.24,0-28,13.91-28,36.27v44H798.8v-44c0-27.65,15-45.78,37.32-45.78,14.79,0,26.41,7.92,32.4,21.48,6.15-13.56,17.78-21.48,32.91-21.48,22,0,36.79,18.13,36.79,45.78v44h-9.15v-44c0-22-10.91-36.27-27.64-36.27-17.42,0-28.17,13.91-28.17,36.27Z"/><path class="cls-2" d="M969.9,2.42c4.23,0,6.87,3,6.87,7a6.87,6.87,0,1,1-13.73,0C963,5.41,965.68,2.42,969.9,2.42Zm-4.75,37h9.51v88h-9.51Z"/><path class="cls-2" d="M1008.46,81.65c0,21.12,15.15,36.25,34.69,36.25,16.55,0,30.1-10.2,32.74-25.7h9.86c-3,20.78-20.42,35.21-42.6,35.21C1018,127.41,999,108.06,999,81.65c0-26.59,19-45.78,44.18-45.78,22.88,0,39.61,14.43,42.6,35h-9.86c-2.82-15.49-15.32-25.52-32.74-25.52C1023.61,45.38,1008.46,60.35,1008.46,81.65Z"/><path class="cls-2" d="M400.44,189.27h61.44c42.51,0,70.21,26.6,70.21,61.43,0,29.08-19.47,52.39-50.46,59.25,22.49,12.62,39.22,35.65,54.58,71.31H520.3c-19.47-44.44-44.15-65.55-79.82-69.12H414.71v69.12H400.44Zm61.44,14.8H414.71v93.26h47.17c33.73,0,55.68-20,55.68-46.63S495.61,204.07,461.88,204.07Z"/><path class="cls-2" d="M613.52,238.64c39.77,0,67.48,29.9,67.48,71.31,0,41.14-27.71,71.31-67.48,71.31S545.77,351.09,545.77,310C545.77,268.54,573.75,238.64,613.52,238.64ZM560.58,310c0,32.91,21.67,56.5,52.94,56.5,31,0,52.65-23.59,52.65-56.5,0-33.19-21.65-56.5-52.65-56.5C582.25,253.45,560.58,276.76,560.58,310Z"/><path class="cls-2" d="M772.83,238.64c39.78,0,67.48,29.9,67.48,71.31,0,41.14-27.7,71.31-67.48,71.31S705.08,351.09,705.08,310C705.08,268.54,733.06,238.64,772.83,238.64ZM719.9,310c0,32.91,21.66,56.5,52.93,56.5,31,0,52.66-23.59,52.66-56.5,0-33.19-21.66-56.5-52.66-56.5C741.56,253.45,719.9,276.76,719.9,310Z"/><path class="cls-2" d="M984.54,381.26H969.72V312.7c0-34.29-16.46-56.5-43.05-56.5-26.89,0-43.62,21.65-43.62,56.5v68.56H868.52V312.7c0-43.07,23.32-71.31,58.15-71.31,23,0,41.14,12.34,50.45,33.45,9.61-21.11,27.71-33.45,51.31-33.45,34.27,0,57.32,28.24,57.32,71.31v68.56h-14.27V312.7c0-34.29-17-56.5-43-56.5-27.17,0-43.89,21.65-43.89,56.5Z"/><path class="cls-1" d="M234.22,28.36A436.51,436.51,0,0,1,161.41,31a327.3,327.3,0,0,1-36.3-3.34,115.6,115.6,0,0,1-17.84-4A38.46,38.46,0,0,1,103,21.88,13.25,13.25,0,0,1,99,19.2a4.16,4.16,0,0,1-1.16-2.38,4.43,4.43,0,0,1,.64-2.56,9.21,9.21,0,0,1,3.69-3.13C107.83,8.29,114,7.58,119.88,6.3s12-2.22,18-3.12A311.21,311.21,0,0,1,174.17.11a287.87,287.87,0,0,1,36.44,1.33c6,.64,12.08,1.39,18.08,2.45A107.19,107.19,0,0,1,246.37,8.6a64.19,64.19,0,0,1,8.4,3.74,38.18,38.18,0,0,1,7.56,5.32,28.6,28.6,0,0,1,5.78,7.26,33.43,33.43,0,0,1,3.32,8.65,45.62,45.62,0,0,1,1.2,9.15,80.15,80.15,0,0,1-.19,9.17,69.13,69.13,0,0,1-3.73,18L256,104c-1,2.84-2.19,5.68-3.08,8.51a46.91,46.91,0,0,0-1.84,8.76A45.55,45.55,0,0,0,252.52,139c.42,1.43.9,2.85,1.45,4.23s1.2,2.78,1.79,4.16l3.66,8.32,7.43,16.62c4.92,11.1,9.75,22.24,14.06,33.62,1.1,2.83,2.1,5.7,3.14,8.56s2,5.74,2.87,8.65c1.87,5.8,3.47,11.67,4.86,17.6A153.51,153.51,0,0,1,296.09,277a118.68,118.68,0,0,1-1.64,18.24,112.91,112.91,0,0,1-4.71,17.7c-1.16,2.82-2.18,5.72-3.57,8.44-.68,1.37-1.26,2.79-2,4.12l-2.23,4c-.7,1.36-1.59,2.6-2.39,3.9s-1.6,2.58-2.52,3.86a68.25,68.25,0,0,1-6.13,6.87,124.21,124.21,0,0,1-13.65,12.18L253.56,359c-1.23.91-2.53,1.71-3.8,2.57-2.5,1.74-5.2,3.19-7.81,4.77A134.31,134.31,0,0,1,225.33,374c-1.41.59-2.89,1-4.32,1.52s-2.89,1-4.37,1.38l-4.41,1.24-4.46,1a127,127,0,0,1-72.06-5.39l-4.26-1.69-4.17-1.9c-.69-.32-1.4-.61-2.08-1l-2-1.06c-1.35-.72-2.73-1.37-4-2.15-2.63-1.55-5.29-3.06-7.8-4.8s-5-3.51-7.46-5.32c-1.21-.92-2.37-1.93-3.55-2.89l-1.77-1.46c-.58-.49-1.13-1-1.7-1.53l-3.37-3.11-3.21-3.26c-1.07-1.09-2.14-2.18-3.15-3.34a42,42,0,0,1-2.92-3.62l-2.48-3.86-1.24-1.93c-.4-.65-.75-1.33-1.12-2l-2.23-4-2-4.14-1-2.07-.85-2.13c-.56-1.43-1.17-2.83-1.68-4.27A114.57,114.57,0,0,1,67,294.55a127.1,127.1,0,0,1-1.54-18.27A150.75,150.75,0,0,1,66.6,258a204.25,204.25,0,0,1,8.21-35.58c1.85-5.79,3.87-11.54,6-17.21s4.45-11.32,6.81-16.91c4.73-11.2,9.75-22.25,14.67-33.33l3.66-8.33c.6-1.39,1.23-2.78,1.75-4.15s1-2.8,1.38-4.23a45.79,45.79,0,0,0,1.18-17.67,46.89,46.89,0,0,0-2-8.69c-1-2.8-2.1-5.67-3.13-8.5l-6.38-17L92.49,69.29a65.13,65.13,0,0,1-3.58-18.07,1,1,0,0,1,2-.11h0a63.46,63.46,0,0,0,3.68,17.45l6.57,17,6.58,17,1.65,4.24c.55,1.4,1.1,2.82,1.63,4.32a49,49,0,0,1,2.17,9.18,48.43,48.43,0,0,1-1.1,18.83,45.08,45.08,0,0,1-1.43,4.54c-.57,1.52-1.18,2.89-1.77,4.29l-3.58,8.39c-4.83,11.14-9.75,22.22-14.35,33.4-2.29,5.59-4.53,11.2-6.61,16.85s-4,11.34-5.82,17.08a199.52,199.52,0,0,0-7.72,34.94,143.87,143.87,0,0,0-1,17.71,122.21,122.21,0,0,0,1.64,17.53,109.16,109.16,0,0,0,4.6,16.91c.49,1.37,1.09,2.71,1.63,4.06l.84,2,1,2,1.91,3.94,2.15,3.82c.36.63.7,1.28,1.09,1.9l1.19,1.84,2.37,3.65a37.9,37.9,0,0,0,2.6,3.16c.94,1.08,2,2.13,3,3.17l3.1,3.12,3.26,3c.55.49,1.08,1,1.64,1.47l1.71,1.39c1.14.92,2.25,1.88,3.42,2.76,2.38,1.72,4.69,3.52,7.19,5.06s5,3.09,7.51,4.56c1.26.74,2.59,1.35,3.89,2l2,1c.65.33,1.33.61,2,.92l4,1.79,4.1,1.59a121.5,121.5,0,0,0,69,4.78l4.26-1,4.21-1.21c1.41-.38,2.78-.88,4.16-1.35s2.77-.9,4.11-1.47a127.1,127.1,0,0,0,15.81-7.41c2.48-1.52,5-2.9,7.42-4.59,1.2-.82,2.44-1.58,3.6-2.46l3.49-2.62a117.44,117.44,0,0,0,12.94-11.67,63.24,63.24,0,0,0,5.57-6.29l.26-.36.11-.17.15-.23.57-.92,1.16-1.83c.75-1.23,1.59-2.42,2.24-3.7l2.08-3.8c.7-1.26,1.24-2.59,1.87-3.89,1.3-2.57,2.23-5.29,3.31-7.95a105,105,0,0,0,4.33-16.65,112.5,112.5,0,0,0,1.45-17.22,147.19,147.19,0,0,0-4.34-34.67c-1.39-5.73-2.93-11.44-4.77-17.09-.86-2.83-1.87-5.63-2.82-8.45s-2-5.62-3.1-8.4c-4.24-11.17-9.05-22.2-14-33.25l-7.45-16.6-3.7-8.36-.91-2.1-.46-1.05-.49-1.19c-.65-1.61-1.2-3.23-1.69-4.88a52.29,52.29,0,0,1-1.7-20.39,54.24,54.24,0,0,1,2.09-10c.23-.82.54-1.62.81-2.43l.8-2.18,1.58-4.27L262.2,67.49a62.32,62.32,0,0,0,3.3-16.14,73.25,73.25,0,0,0,.16-8.38,38.41,38.41,0,0,0-1-7.77A26.26,26.26,0,0,0,262,28.34a21.49,21.49,0,0,0-4.41-5.51c-3.61-3.31-8.34-5.67-13.66-7.62a100.61,100.61,0,0,0-16.51-4.36c-2.82-.52-5.77-.89-8.7-1.31s-5.88-.73-8.83-1a281,281,0,0,0-35.54-1.24,303.46,303.46,0,0,0-35.47,3.06c-5.88.89-11.74,1.86-17.56,3.08l-4.51.91c-1.48.29-2.85.57-4.2.89s-2.65.66-3.85,1.06a20,20,0,0,0-3.13,1.28,5.55,5.55,0,0,0-.9.57c-.17.13-.14.18,0-.13a3,3,0,0,0,.29-.69c0-.16.05-.32.08-.48a1.93,1.93,0,0,0,0-.24c0-.06,0-.28,0-.42a3.32,3.32,0,0,0-.7-1.87c-.06-.06.14.13.46.33a12.49,12.49,0,0,0,1.27.7,30.29,30.29,0,0,0,3.45,1.36,107.82,107.82,0,0,0,16.64,3.72,319.29,319.29,0,0,0,35.46,3.2l35.9,1.24c12,.45,24,.83,36.31,1.58h.22a1,1,0,0,1,.91,1A1,1,0,0,1,234.22,28.36Z"/></g></g></svg>